<?xml version="1.0" encoding="UTF-8"?><svg id="Ebene_2" xmlns="http://www.w3.org/2000/svg" viewBox="0 0 640.48 155.73"><defs><style>.cls-1,.cls-2{fill:#fff;}.cls-2{fill-rule:evenodd;}</style></defs><g id="Ebene_1-2"><path class="cls-1" d="m55.57,28.48c-6.12.59-11.84,2-17.19,4.2-7.24,3.02-13.98,7.61-20.12,13.78-6.23,6.34-10.79,13.1-13.72,20.32-3.02,7.21-4.54,15.16-4.54,23.87s1.52,16.68,4.54,23.84c2.93,7.33,7.5,14.06,13.72,20.23,6.03,6.12,12.77,10.68,20.12,13.7,7.38,3.04,15.33,4.57,23.87,4.57,4.4,0,8.6-.42,12.54-1.24,3.8-.73,7.69-1.94,11.67-3.64,3.66-1.55,7.24-3.49,10.71-5.86,2-1.32,3.8-2.68,5.47-4.06l-11.72-11.81c-3.21,2.71-6.85,4.9-10.99,6.62-5.55,2.25-11.41,3.38-17.59,3.38s-12.01-1.13-17.5-3.38c-5.55-2.28-10.46-5.61-14.68-10-4.42-4.34-7.78-9.24-10.09-14.68-2.2-5.35-3.3-11.22-3.3-17.58s1.1-12.12,3.3-17.53h.08c2.25-5.44,5.58-10.37,10-14.77,4.34-4.34,9.24-7.69,14.68-10.06,5.5-2.25,11.33-3.41,17.5-3.41s11.98,1.16,17.42,3.41c3.97,1.69,7.64,3.92,10.99,6.68l11.81-11.81c-1.66-1.32-3.47-2.68-5.44-4.06-3.27-2.14-6.85-4.09-10.74-5.86-3.8-1.63-7.69-2.87-11.64-3.69-4.14-.79-8.31-1.16-12.57-1.16h-6.59Z"/><path class="cls-1" d="m218.22,31.57v122.76h44.24c4.79,0,9.41-.9,13.87-2.71,4.54-1.94,8.48-4.62,11.89-8.09,3.41-3.47,6.03-7.44,7.86-11.89,1.8-4.31,2.71-8.99,2.71-14.03s-.9-9.67-2.71-13.95c-1.83-4.42-4.45-8.4-7.86-11.98-1.04-.99-2.25-1.97-3.64-2.9-1.69-1.04-3.41-1.97-5.1-2.79l-5.13-2.31,2.73-4.88c1.55-2.71,2.73-5.55,3.64-8.51.82-2.93,1.24-5.38,1.24-7.44,0-4.23-.79-8.2-2.31-11.89-1.61-3.55-3.86-6.85-6.79-9.81-2.96-3.04-6.43-5.41-10.4-7.1-4-1.66-8.12-2.48-12.29-2.48h-31.96Zm16.26,101.87v-37.4h5.21c1.16,0,2.34,0,3.58-.03,1.24-.03,2.51-.06,3.75-.06,2.59-.06,5.19-.08,7.72-.11,2.56-.03,5.24.03,8.06.2,2.59.17,5.16.85,7.67,2.06,2.31,1.04,4.51,2.56,6.54,4.54,1.92,2,3.44,4.31,4.54,6.96,1.04,2.62,1.58,5.3,1.58,8s-.54,5.38-1.58,8.09c-1.21,2.79-2.73,5.07-4.54,6.85-1.83,1.92-4.06,3.44-6.68,4.54-2.65,1.04-5.27,1.58-7.86,1.58h-27.98v-5.21h0Zm0-56.64v-29.45h15.7c2.2,0,4.28.39,6.26,1.21,2.06.96,3.8,2.14,5.3,3.55,1.55,1.72,2.73,3.52,3.55,5.47.82,1.97,1.24,4.09,1.24,6.34s-.42,4.48-1.24,6.45c-.82,1.97-2,3.8-3.55,5.44-1.83,1.83-3.61,3.16-5.38,3.97-1.41.65-3.44,1.16-6,1.49l-.34.08c-.62,0-1.3.03-2.06.08-3.41.2-6.12.37-8.09.48l-5.38.25v-5.38h0Zm75.89-45.48v123.35h69.83v-16.35h-53.4v-37.14h40.05v-16.34h-40.05v-37.17h53.4v-16.35h-69.83Zm129.21-.9l-52.75,123.91h17.59l9.07-20.21h52.19l9.07,20.21h17.59l-52.76-123.91h0Zm-20.06,90.49c3.33-7.72,6.65-15.98,10.03-24.86,3.38-8.85,6.76-17.16,10.12-24.94,3.3,7.78,6.62,16.09,9.95,24.94,3.33,8.88,6.68,17.13,10.03,24.86h-40.13Zm86.37-89.33h-27.59v16.26h32.77v106.5h16.43V47.83h32.77v-16.26h-54.39Zm97.03,107.37c-4.06,0-7.95-1.18-11.64-3.52-3.72-2.34-6.34-5.35-7.86-9.05l-16.49,3.49c1.55,5.04,4.17,9.53,7.86,13.47,3.69,3.97,8,7.02,12.91,9.16,4.93,2.14,10.03,3.24,15.3,3.24,4.79,0,9.44-.93,14.01-2.79,4.57-1.86,8.57-4.34,12.01-7.47,3.44-3.1,6.23-6.88,8.31-11.3,2.09-4.42,3.16-9.07,3.16-13.92,0-3.21-.54-6.34-1.61-9.3-1.07-2.99-2.51-5.64-4.31-7.98-1.78-2.31-3.92-4.51-6.4-6.51-2.48-2-5.07-3.75-7.78-5.19-2.68-1.44-5.55-2.71-8.54-3.75-.9-.34-2.23-.76-3.95-1.3-1.75-.56-3.24-1.04-4.51-1.44-1.27-.39-2.79-.96-4.51-1.63-1.75-.7-3.24-1.38-4.51-2.09-1.24-.68-2.54-1.52-3.89-2.56-1.32-1.04-2.42-2.14-3.27-3.27-.85-1.16-1.52-2.51-2.09-4.09-.54-1.58-.82-3.27-.82-5.07,0-2.48.51-4.88,1.49-7.16.99-2.28,2.34-4.28,4.09-6.03s3.72-3.07,6-4.06c2.28-.99,4.68-1.47,7.19-1.47,5.04,0,9.41,1.83,13.16,5.52,2.06,2.11,3.52,4.42,4.42,6.96l16.37-3.44c-1.89-6.82-5.52-12.54-10.85-17.16-3.18-2.73-6.76-4.88-10.74-6.4-3.97-1.52-8.17-2.25-12.54-2.25-4.85,0-9.41.9-13.75,2.73-4.34,1.8-8.14,4.37-11.41,7.64-3.27,3.24-5.81,7.02-7.61,11.33-1.83,4.31-2.73,8.88-2.73,13.7,0,3.58.59,6.99,1.78,10.29,1.21,3.3,2.87,6.26,5.07,8.88,3.18,3.83,6.9,6.96,11.13,9.33,4.23,2.37,9.07,4.31,14.48,5.83,2.42.65,4.65,1.35,6.68,2.09,2,.7,4.11,1.66,6.34,2.82,2.23,1.18,4.09,2.45,5.58,3.78,1.49,1.35,2.73,2.99,3.69,4.9.99,1.92,1.44,3.97,1.38,6.17,0,2.65-.59,5.1-1.8,7.41-1.18,2.34-2.76,4.28-4.73,5.86-1.97,1.58-4.17,2.85-6.62,3.83-2.42.99-4.93,1.55-7.47,1.75h0Z"/><polygon class="cls-2" points="123.85 0 143.7 0 143.7 154.67 123.85 154.67 123.85 0 123.85 0"/><polygon class="cls-2" points="150.09 .05 169.94 .05 169.94 154.72 150.09 154.72 150.09 .05 150.09 .05"/><polygon class="cls-2" points="176.24 0 196.09 0 196.09 154.68 176.24 154.68 176.24 0 176.24 0"/></g></svg>